<?xml version="1.0" encoding="utf-8"?>
<!-- Generator: Adobe Illustrator 19.0.0, SVG Export Plug-In . SVG Version: 6.00 Build 0)  -->
<svg version="1.1" id="Layer_1" xmlns="http://www.w3.org/2000/svg" xmlns:xlink="http://www.w3.org/1999/xlink" x="0px" y="0px"
	 viewBox="0 0 850.4 474.9" style="enable-background:new 0 0 850.4 474.9;" xml:space="preserve">
<style type="text/css">
	.st0{clip-path:url(#SVGID_2_);}
</style>
<path d="M432.9,293.6l-6.8-16.1l-20,8.5l-3.4-7.9l20-8.5l-6.8-16.1l-20,8.5l-3.7-8.7l20-8.5l-6.8-16.1l-20,8.5l-3.4-8.1l20.1-8.5
	l-6.8-16.1l-20.1,8.5l-3.3-7.8l20-8.5l-6.8-16.1l-20,8.5l-3-7l20.1-8.5l-6.8-16.1l-20.1,8.5l-3.4-8l20.1-8.5l-6.8-16.1l-20.1,8.5
	l-3.8-8.9l20-8.5l-6.8-16.1l-20,8.5l-3.7-8.8l20.1-8.5l-6.8-16.1l-20.1,8.5l-3.4-8.1l20.1-8.5l-6.8-16.1l-20,8.5l-5.2-12.3
	l-12.7,5.4l-8.4-19.8l-16.1,6.8l8.4,19.8l-7.9,3.4l-8.4-19.7l-16.1,6.8l8.4,19.7l-8.7,3.7l-8.4-19.8l-16.1,6.8l8.4,19.8l-8.1,3.4
	l-8.4-19.8l-16.1,6.8l8.4,19.8l-7.8,3.3l-8.4-19.8l-16.1,6.8l8.4,19.8l-7,3l-8.4-19.9L151.2,99l8.4,19.9l-8,3.4l-8.4-19.8l-16.1,6.8
	l8.4,19.8l-8.9,3.8l-8.4-19.8l-16.1,6.8l8.4,19.8l-8.8,3.7l-8.4-19.8l-16.1,6.8l8.4,19.8l-8.1,3.4l-8.4-19.8l-16.1,6.8l8.4,19.8
	L51,164.9l-1.9,0.8l5.4,12.8l-19.7,8.4l6.8,16.1l19.7-8.4l3.4,7.9L45,210.9l6.8,16.1l19.7-8.4l3.7,8.7l-19.7,8.4l6.8,16.1l19.7-8.4
	l3.5,8.1l-19.8,8.4l6.8,16.1l19.8-8.4l3.3,7.8l-19.8,8.4l6.8,16.1l19.8-8.4l3,7l-19.9,8.4l6.8,16.1l19.9-8.4l3.4,8l-19.8,8.4
	l6.8,16.1l19.8-8.4l3.8,8.9l-19.8,8.4l6.8,16.1l19.8-8.4l3.7,8.8l-19.9,8.4l6.8,16.1l19.9-8.4l3.4,8l-19.9,8.4l6.8,16.1l19.9-8.4
	l0.6,1.3l15.6,6.5l2-0.9l8.3,19.6l16.1-6.8l-8.3-19.6l7.9-3.4l8.3,19.6l16.1-6.8l-8.3-19.6l8.7-3.7l8.3,19.6l16.1-6.8l-8.3-19.6
	l8.1-3.4l8.4,19.7l16.1-6.8l-8.4-19.7l7.8-3.3l8.3,19.6l16.1-6.8l-8.3-19.6l7-3l8.4,19.7l16.1-6.8l-8.4-19.7l8-3.4l8.3,19.7
	l16.1-6.8l-8.3-19.7l8.9-3.8l8.3,19.6l16.1-6.8l-8.3-19.6l8.8-3.7l8.4,19.7l16.1-6.8l-8.4-19.7l8.1-3.4l8.3,19.7l16.1-6.8l-8.3-19.6
	l10.3-4.4l1.9-0.8l-5.5-12.9L432.9,293.6z M170.1,415.9l-12.4-5.2L54.5,167.9L306.2,61.1L413,312.8L170.1,415.9z"/>
<g>
	<defs>
		<rect id="SVGID_1_" y="-216.1" width="850.4" height="907.1"/>
	</defs>
	<clipPath id="SVGID_2_">
		<use xlink:href="#SVGID_1_"  style="overflow:visible;"/>
	</clipPath>
	<path class="st0" d="M177.5,390.5c3.6,3.5,3.7,9.2,0.2,12.8c-3.5,3.6-9.2,3.7-12.8,0.2c-3.6-3.5-3.7-9.2-0.2-12.8
		C168.2,387.1,173.9,387,177.5,390.5"/>
	<polygon class="st0" points="382,94.7 382,107.9 398.5,107.9 398.5,115.9 382,115.9 382,137.3 372.2,137.3 372.2,86.4 399.4,86.4 
		399.4,94.7 	"/>
	<path class="st0" d="M425.1,137.3c0-1.1,0-2.2,0.1-3.3c0.1-1.1,0.2-2.1,0.3-3.1l-0.1-0.1c-0.9,2.1-2.4,3.9-4.6,5.2
		c-2.1,1.3-4.6,2-7.4,2c-3.4,0-6.1-1-7.9-3.1c-1.9-2-2.8-4.6-2.8-7.7c0-2.2,0.5-4.1,1.6-5.8c1-1.7,2.5-3,4.4-4.1
		c1.9-1.1,4.2-1.9,6.9-2.4c2.7-0.5,5.7-0.8,8.9-0.8v-1.9c0-1.9-0.5-3.4-1.6-4.4c-1.1-1-3-1.5-5.7-1.5c-1.7,0-3.5,0.3-5.4,0.8
		c-1.9,0.5-3.6,1.1-5.1,1.9l-1.7-7.6c1.9-0.7,4.1-1.3,6.6-1.8c2.5-0.5,4.9-0.7,7.4-0.7c3,0,5.4,0.3,7.4,0.9c1.9,0.6,3.5,1.4,4.7,2.5
		c1.2,1.1,2,2.4,2.5,4c0.5,1.6,0.7,3.3,0.7,5.3v16c0,1.5,0,3.1,0,4.8c0,1.7,0.1,3.3,0.2,4.9H425.1z M424.3,120.5
		c-2.5,0-4.5,0.2-6.1,0.4c-1.6,0.3-2.9,0.7-3.8,1.2c-0.9,0.5-1.6,1.1-2,1.8c-0.4,0.7-0.6,1.4-0.6,2.2c0,1.2,0.4,2.3,1.2,3.1
		c0.8,0.8,1.9,1.2,3.3,1.2c1.2,0,2.3-0.3,3.3-0.8c1-0.5,1.8-1.2,2.5-2c0.7-0.8,1.3-1.8,1.6-2.8c0.4-1.1,0.6-2.2,0.6-3.3V120.5z"/>
	<path class="st0" d="M464.4,137.6c-1.9,0.3-3.7,0.5-5.6,0.5c-2.6,0-5-0.4-7.1-1.1c-2.1-0.7-3.9-1.8-5.3-3.2
		c-1.5-1.5-2.6-3.3-3.4-5.7c-0.8-2.3-1.2-5.1-1.2-8.2c0-2.9,0.4-5.6,1.2-8.1c0.8-2.5,1.9-4.7,3.5-6.6c1.6-1.9,3.5-3.3,5.9-4.4
		c2.4-1.1,5.2-1.6,8.5-1.6c1.5,0,2.9,0.1,4.3,0.3c1.4,0.2,2.7,0.5,3.9,0.9l-1.5,8.3c-1-0.4-2.1-0.7-3.3-1c-1.2-0.3-2.4-0.4-3.7-0.4
		c-2.9,0-5,1.1-6.5,3.2c-1.5,2.1-2.2,4.9-2.2,8.4c0,1.6,0.1,3.1,0.5,4.4c0.3,1.3,0.8,2.5,1.5,3.4c0.7,1,1.6,1.7,2.7,2.2
		c1.1,0.5,2.5,0.8,4.1,0.8c2.6,0,5.1-0.5,7.3-1.5l1.3,8.1C467.9,136.8,466.2,137.3,464.4,137.6"/>
	<path class="st0" d="M499.6,137.3v-24c0-1.9-0.3-3.4-1-4.5c-0.7-1.1-1.9-1.7-3.6-1.7c-1.2,0-2.4,0.3-3.5,1c-1.1,0.7-2,1.5-2.8,2.6
		c-0.8,1.1-1.4,2.4-1.9,3.8c-0.5,1.5-0.7,3.1-0.7,4.7v18h-9.6V82.3h9.6v16.1c0,1.2-0.1,2.4-0.2,3.8c-0.1,1.4-0.3,2.7-0.5,3.8h0.1
		c1.1-2.1,2.7-3.8,4.8-5.1s4.6-1.9,7.5-1.9c2.1,0,3.9,0.3,5.3,0.9c1.4,0.6,2.6,1.5,3.4,2.6c0.9,1.1,1.5,2.3,1.9,3.8
		c0.4,1.4,0.6,3,0.6,4.6v26.3H499.6z"/>
	<path class="st0" d="M543,125.7c0,1.9-0.4,3.6-1.2,5.1c-0.8,1.5-1.9,2.8-3.4,3.9c-1.5,1.1-3.2,1.9-5.2,2.5c-2,0.6-4.3,0.9-6.8,0.9
		c-1.5,0-2.9-0.1-4.4-0.2c-1.5-0.1-2.8-0.4-4-0.7l0.7-8.1c1.2,0.5,2.4,0.9,3.8,1.1c1.4,0.3,2.8,0.4,4.2,0.4c1.8,0,3.3-0.4,4.4-1.1
		c1.1-0.7,1.7-1.7,1.7-2.9c0-1.1-0.4-2-1.1-2.6c-0.8-0.6-1.7-1.2-2.8-1.6c-1.1-0.4-2.4-0.9-3.7-1.3c-1.3-0.5-2.5-1.1-3.7-1.9
		c-1.1-0.8-2.1-1.8-2.8-3.1c-0.8-1.3-1.1-3-1.1-5.1c0-1.7,0.3-3.2,0.9-4.7c0.6-1.5,1.6-2.7,2.9-3.8c1.3-1.1,3-1.9,4.9-2.6
		c2-0.6,4.3-0.9,7.1-0.9c1.1,0,2.3,0.1,3.5,0.2c1.2,0.1,2.3,0.3,3.4,0.6l-0.5,7.5c-1-0.3-2.1-0.5-3.3-0.7c-1.2-0.2-2.4-0.3-3.5-0.3
		c-1.9,0-3.3,0.4-4.2,1.1c-0.9,0.7-1.3,1.6-1.3,2.8c0,1.1,0.4,1.9,1.1,2.5c0.8,0.6,1.7,1.1,2.9,1.6c1.2,0.5,2.4,0.9,3.7,1.4
		c1.3,0.5,2.6,1.1,3.7,1.9c1.2,0.8,2.1,1.8,2.9,3.1C542.6,121.9,543,123.6,543,125.7"/>
	<path class="st0" d="M570.9,137.6c-1.9,0.3-3.7,0.5-5.6,0.5c-2.6,0-5-0.4-7.1-1.1c-2.1-0.7-3.9-1.8-5.3-3.2
		c-1.5-1.5-2.6-3.3-3.4-5.7c-0.8-2.3-1.2-5.1-1.2-8.2c0-2.9,0.4-5.6,1.2-8.1c0.8-2.5,1.9-4.7,3.5-6.6c1.6-1.9,3.5-3.3,5.9-4.4
		c2.4-1.1,5.2-1.6,8.5-1.6c1.5,0,2.9,0.1,4.3,0.3c1.4,0.2,2.7,0.5,3.9,0.9l-1.5,8.3c-1-0.4-2.1-0.7-3.3-1c-1.2-0.3-2.4-0.4-3.7-0.4
		c-2.9,0-5,1.1-6.5,3.2c-1.5,2.1-2.2,4.9-2.2,8.4c0,1.6,0.1,3.1,0.5,4.4c0.3,1.3,0.8,2.5,1.5,3.4c0.7,1,1.6,1.7,2.7,2.2
		c1.1,0.5,2.5,0.8,4.1,0.8c2.6,0,5.1-0.5,7.3-1.5l1.3,8.1C574.5,136.8,572.8,137.3,570.9,137.6"/>
	<path class="st0" d="M606.2,137.3v-24c0-1.9-0.3-3.4-1-4.5c-0.7-1.1-1.9-1.7-3.6-1.7c-1.2,0-2.4,0.3-3.5,1c-1.1,0.7-2,1.5-2.8,2.6
		c-0.8,1.1-1.4,2.4-1.9,3.8c-0.5,1.5-0.7,3.1-0.7,4.7v18h-9.6V82.3h9.6v16.1c0,1.2-0.1,2.4-0.2,3.8c-0.1,1.4-0.3,2.7-0.5,3.8h0.1
		c1.1-2.1,2.7-3.8,4.8-5.1c2.1-1.3,4.6-1.9,7.5-1.9c2.1,0,3.9,0.3,5.3,0.9c1.4,0.6,2.6,1.5,3.4,2.6c0.9,1.1,1.5,2.3,1.9,3.8
		c0.4,1.4,0.6,3,0.6,4.6v26.3H606.2z"/>
	<path class="st0" d="M646.3,137.3c0-1.1,0-2.2,0.1-3.3c0-1.1,0.2-2.1,0.3-3.1l-0.1-0.1c-0.9,2.1-2.4,3.9-4.6,5.2
		c-2.1,1.3-4.6,2-7.4,2c-3.4,0-6.1-1-7.9-3.1c-1.9-2-2.8-4.6-2.8-7.7c0-2.2,0.5-4.1,1.5-5.8c1-1.7,2.5-3,4.4-4.1s4.2-1.9,6.9-2.4
		c2.7-0.5,5.6-0.8,8.9-0.8v-1.9c0-1.9-0.5-3.4-1.6-4.4c-1.1-1-3-1.5-5.7-1.5c-1.7,0-3.5,0.3-5.4,0.8c-1.9,0.5-3.6,1.1-5.1,1.9
		l-1.7-7.6c1.9-0.7,4.1-1.3,6.6-1.8c2.5-0.5,4.9-0.7,7.4-0.7c3,0,5.4,0.3,7.4,0.9c1.9,0.6,3.5,1.4,4.7,2.5c1.2,1.1,2,2.4,2.5,4
		c0.5,1.6,0.7,3.3,0.7,5.3v16c0,1.5,0,3.1,0,4.8c0,1.7,0.1,3.3,0.2,4.9H646.3z M645.5,120.5c-2.5,0-4.5,0.2-6.1,0.4
		c-1.6,0.3-2.9,0.7-3.8,1.2c-0.9,0.5-1.6,1.1-2,1.8c-0.4,0.7-0.6,1.4-0.6,2.2c0,1.2,0.4,2.3,1.2,3.1c0.8,0.8,1.9,1.2,3.3,1.2
		c1.2,0,2.3-0.3,3.3-0.8c1-0.5,1.8-1.2,2.5-2c0.7-0.8,1.3-1.8,1.6-2.8c0.4-1.1,0.6-2.2,0.6-3.3V120.5z"/>
	<path class="st0" d="M688.1,90.2c-0.8-0.3-1.5-0.4-2.4-0.5c-0.8-0.1-1.6-0.2-2.3-0.2c-2.1,0-3.7,0.6-4.6,1.7c-1,1.1-1.5,3-1.5,5.5
		v3.2h8.7v7.5h-8.7v30h-9.6v-30h-6.6v-7.5h6.6v-3c0-5.1,1.2-8.9,3.6-11.4c2.4-2.5,6.2-3.7,11.4-3.7c1,0,2,0,3.1,0.1
		c1,0.1,2,0.2,3.1,0.5L688.1,90.2z"/>
	<path class="st0" d="M707.2,137.8c-1.5,0.2-2.8,0.3-4.1,0.3c-2.1,0-3.8-0.2-5.2-0.6c-1.4-0.4-2.5-1.1-3.4-2
		c-0.8-0.9-1.4-2.1-1.8-3.6c-0.4-1.5-0.5-3.3-0.5-5.5v-19h-6.5v-7.5h6.5V88.3l9.6-2.6v14.1h9.1v7.5h-9.1v16.5c0,2.4,0.3,4.1,1,4.9
		c0.7,0.9,1.8,1.3,3.5,1.3s3.1-0.2,4.3-0.5l0.7,7.6C710,137.4,708.7,137.6,707.2,137.8"/>
	<path class="st0" d="M769.2,123.5c-1.1,3.2-2.6,6-4.5,8.2c-1.9,2.2-4.1,3.9-6.6,5c-2.5,1.2-5.1,1.7-7.8,1.7c-2.8,0-5.4-0.5-7.8-1.4
		c-2.4-0.9-4.4-2.4-6.2-4.4c-1.8-2-3.1-4.7-4.1-8c-1-3.3-1.5-7.3-1.5-12c0-4.1,0.6-7.7,1.7-10.9c1.1-3.2,2.6-5.9,4.5-8.1
		c1.9-2.2,4.1-3.9,6.6-5c2.5-1.2,5.1-1.7,7.9-1.7c2.6,0,5,0.4,7.4,1.3c2.3,0.9,4.4,2.3,6.2,4.2c1.8,2,3.2,4.6,4.3,7.9
		c1.1,3.3,1.6,7.3,1.6,12.1C770.9,116.5,770.3,120.2,769.2,123.5 M759.5,104.7c-0.4-2.2-1.1-4-1.9-5.4c-0.8-1.3-1.8-2.3-3-2.9
		c-1.2-0.6-2.4-0.9-3.9-0.9c-1.2,0-2.4,0.3-3.5,0.9c-1.1,0.6-2.1,1.6-3,3c-0.9,1.3-1.6,3.1-2.1,5.2c-0.5,2.1-0.7,4.7-0.7,7.8
		c0,3.3,0.2,6.1,0.7,8.3c0.5,2.2,1.1,4,1.9,5.3c0.8,1.3,1.8,2.3,3,2.8c1.2,0.6,2.4,0.9,3.8,0.9c1.3,0,2.5-0.3,3.6-0.9
		c1.1-0.6,2.1-1.6,3-2.9c0.9-1.3,1.5-3.1,2-5.2c0.5-2.1,0.7-4.8,0.7-7.8C760.2,109.7,760,106.9,759.5,104.7"/>
	<path class="st0" d="M804.8,126.1v12.4h-9.1v-12.4h-20.1l-0.8-7.6L792.2,87h12.7v30.9h6.9v8.2H804.8z M795.9,96.2L795.9,96.2
		l-12,21.7c0.7,0,1.7,0,2.8,0c1.1,0,2.2,0,3.4,0h3.3h2.5L795.9,96.2z"/>
	<polygon class="st0" points="455.1,306.5 455.1,294.7 443.4,294.7 443.4,306.5 438,306.5 438,279.4 443.4,279.4 443.4,290.2 
		455.1,290.2 455.1,279.4 460.4,279.4 460.4,306.5 	"/>
	<path class="st0" d="M484.6,296.1c0,1.6-0.3,3-0.8,4.3c-0.5,1.3-1.2,2.4-2.2,3.4c-0.9,1-2,1.7-3.3,2.2c-1.3,0.5-2.7,0.8-4.2,0.8
		c-1.4,0-2.8-0.2-3.9-0.6c-1.2-0.4-2.2-1-3-1.8c-0.8-0.8-1.5-1.9-1.9-3.1c-0.5-1.3-0.7-2.8-0.7-4.6c0-1.6,0.3-3,0.8-4.3
		c0.5-1.3,1.2-2.4,2.1-3.4c0.9-1,2-1.7,3.3-2.2c1.3-0.5,2.7-0.8,4.2-0.8c2.9,0,5.2,0.8,6.9,2.4C483.8,290.2,484.6,292.7,484.6,296.1
		 M479.2,296.4c0-1.9-0.4-3.4-1.1-4.4c-0.7-1-1.8-1.5-3.4-1.5c-0.6,0-1.1,0.1-1.7,0.3c-0.6,0.2-1.1,0.6-1.5,1.1
		c-0.4,0.5-0.8,1.1-1,1.8c-0.3,0.7-0.4,1.6-0.4,2.6c0,4.1,1.5,6.2,4.6,6.2c1.3,0,2.4-0.5,3.3-1.5C478.8,300,479.2,298.4,479.2,296.4
		"/>
	<path class="st0" d="M499.6,306.6c-1,0.2-2,0.2-3,0.2c-1.4,0-2.7-0.2-3.8-0.6c-1.1-0.4-2.1-1-2.9-1.7c-0.8-0.8-1.4-1.8-1.8-3
		c-0.4-1.2-0.6-2.7-0.6-4.4c0-1.6,0.2-3,0.6-4.3c0.4-1.3,1.1-2.5,1.9-3.5c0.8-1,1.9-1.8,3.2-2.3c1.3-0.6,2.8-0.8,4.6-0.8
		c0.8,0,1.6,0.1,2.3,0.2c0.8,0.1,1.5,0.3,2.1,0.5l-0.8,4.4c-0.5-0.2-1.1-0.4-1.8-0.5c-0.7-0.1-1.3-0.2-2-0.2c-1.6,0-2.7,0.6-3.5,1.7
		c-0.8,1.1-1.2,2.6-1.2,4.5c0,0.9,0.1,1.6,0.2,2.4c0.2,0.7,0.4,1.3,0.8,1.8c0.4,0.5,0.9,0.9,1.5,1.2c0.6,0.3,1.3,0.4,2.2,0.4
		c1.4,0,2.7-0.3,4-0.8l0.7,4.3C501.5,306.2,500.6,306.5,499.6,306.6"/>
	<path class="st0" d="M518.8,306.5v-12.8c0-1-0.2-1.8-0.5-2.4c-0.4-0.6-1-0.9-2-0.9c-0.7,0-1.3,0.2-1.9,0.5
		c-0.6,0.3-1.1,0.8-1.5,1.4c-0.4,0.6-0.8,1.3-1,2.1c-0.2,0.8-0.4,1.6-0.4,2.5v9.6h-5.2v-29.4h5.2v8.6c0,0.6,0,1.3-0.1,2
		c-0.1,0.7-0.1,1.4-0.3,2h0.1c0.6-1.1,1.5-2,2.6-2.7c1.1-0.7,2.5-1,4.1-1c1.2,0,2.1,0.2,2.9,0.5c0.8,0.3,1.4,0.8,1.9,1.4
		c0.5,0.6,0.8,1.2,1,2c0.2,0.8,0.3,1.6,0.3,2.5v14H518.8z"/>
	<path class="st0" d="M542.3,300.3c0,1-0.2,1.9-0.6,2.7c-0.4,0.8-1,1.5-1.8,2.1c-0.8,0.6-1.7,1-2.8,1.3c-1.1,0.3-2.3,0.5-3.7,0.5
		c-0.8,0-1.6,0-2.4-0.1c-0.8-0.1-1.5-0.2-2.2-0.4l0.4-4.3c0.6,0.3,1.3,0.5,2.1,0.6c0.8,0.1,1.5,0.2,2.3,0.2c1,0,1.8-0.2,2.4-0.6
		c0.6-0.4,0.9-0.9,0.9-1.6c0-0.6-0.2-1.1-0.6-1.4c-0.4-0.3-0.9-0.6-1.5-0.8c-0.6-0.2-1.3-0.5-2-0.7c-0.7-0.2-1.4-0.6-2-1
		c-0.6-0.4-1.1-1-1.5-1.7c-0.4-0.7-0.6-1.6-0.6-2.7c0-0.9,0.2-1.7,0.5-2.5c0.3-0.8,0.9-1.5,1.6-2c0.7-0.6,1.6-1,2.7-1.4
		c1.1-0.3,2.4-0.5,3.8-0.5c0.6,0,1.2,0,1.9,0.1c0.7,0.1,1.3,0.2,1.8,0.3l-0.2,4c-0.5-0.2-1.1-0.3-1.8-0.4c-0.6-0.1-1.3-0.1-1.9-0.1
		c-1,0-1.8,0.2-2.3,0.6c-0.5,0.4-0.7,0.9-0.7,1.5c0,0.6,0.2,1,0.6,1.3c0.4,0.3,0.9,0.6,1.6,0.8c0.6,0.2,1.3,0.5,2,0.7
		c0.7,0.3,1.4,0.6,2,1c0.6,0.4,1.1,1,1.6,1.6C542.1,298.3,542.3,299.2,542.3,300.3"/>
	<path class="st0" d="M557.5,306.6c-1,0.2-2,0.2-3,0.2c-1.4,0-2.7-0.2-3.8-0.6c-1.1-0.4-2.1-1-2.9-1.7c-0.8-0.8-1.4-1.8-1.8-3
		c-0.4-1.2-0.6-2.7-0.6-4.4c0-1.6,0.2-3,0.6-4.3c0.4-1.3,1.1-2.5,1.9-3.5c0.8-1,1.9-1.8,3.2-2.3c1.3-0.6,2.8-0.8,4.6-0.8
		c0.8,0,1.6,0.1,2.3,0.2c0.8,0.1,1.5,0.3,2.1,0.5l-0.8,4.4c-0.5-0.2-1.1-0.4-1.8-0.5c-0.7-0.1-1.3-0.2-2-0.2c-1.6,0-2.7,0.6-3.5,1.7
		c-0.8,1.1-1.2,2.6-1.2,4.5c0,0.9,0.1,1.6,0.2,2.4c0.2,0.7,0.4,1.3,0.8,1.8c0.4,0.5,0.9,0.9,1.5,1.2c0.6,0.3,1.3,0.4,2.2,0.4
		c1.4,0,2.7-0.3,4-0.8l0.7,4.3C559.4,306.2,558.5,306.5,557.5,306.6"/>
	<path class="st0" d="M576.7,306.5v-12.8c0-1-0.2-1.8-0.5-2.4c-0.4-0.6-1-0.9-2-0.9c-0.7,0-1.3,0.2-1.9,0.5
		c-0.6,0.3-1.1,0.8-1.5,1.4c-0.4,0.6-0.8,1.3-1,2.1c-0.2,0.8-0.4,1.6-0.4,2.5v9.6h-5.2v-29.4h5.2v8.6c0,0.6,0,1.3-0.1,2
		c-0.1,0.7-0.1,1.4-0.3,2h0.1c0.6-1.1,1.5-2,2.6-2.7c1.1-0.7,2.5-1,4.1-1c1.2,0,2.1,0.2,2.9,0.5c0.8,0.3,1.4,0.8,1.9,1.4
		c0.5,0.6,0.8,1.2,1,2c0.2,0.8,0.3,1.6,0.3,2.5v14H576.7z"/>
	<path class="st0" d="M600.4,306.5c0-0.5,0-1,0-1.7c0-0.7,0.1-1.3,0.2-1.9h0c-0.6,1.2-1.5,2.1-2.7,2.9c-1.2,0.7-2.6,1.1-4.3,1.1
		c-1.2,0-2.1-0.2-2.9-0.5c-0.8-0.3-1.4-0.8-1.9-1.4c-0.5-0.6-0.8-1.2-1-2c-0.2-0.8-0.3-1.6-0.3-2.5v-14h5.2v12.8
		c0,1,0.2,1.8,0.5,2.4c0.4,0.6,1,0.9,2,0.9c0.7,0,1.3-0.2,1.9-0.5c0.6-0.3,1.1-0.8,1.5-1.4c0.4-0.6,0.8-1.3,1-2
		c0.2-0.8,0.4-1.6,0.4-2.5v-9.7h5.2v20H600.4z"/>
	<rect x="610.9" y="277.1" class="st0" width="5.2" height="29.4"/>
	<path class="st0" d="M638.5,295c0,0.3,0,0.7,0,1.1c0,0.4-0.1,0.8-0.1,1.3h-12.6c0,3.7,1.8,5.6,5.6,5.6c2,0,4-0.4,5.9-1.2l0.6,3.9
		c-1.1,0.4-2.3,0.8-3.6,1c-1.3,0.2-2.5,0.3-3.8,0.3c-3.2,0-5.7-0.8-7.4-2.5c-1.7-1.6-2.6-4.2-2.6-7.8c0-1.5,0.2-2.9,0.6-4.2
		c0.4-1.3,1-2.4,1.8-3.4c0.8-0.9,1.8-1.7,3-2.2c1.2-0.5,2.5-0.8,4.1-0.8c1.5,0,2.8,0.2,3.8,0.7c1.1,0.5,2,1.1,2.7,1.9
		c0.7,0.8,1.2,1.8,1.6,2.8C638.4,292.6,638.5,293.8,638.5,295 M632.4,290.9c-0.6-0.7-1.5-1.1-2.6-1.1c-1.1,0-2,0.4-2.7,1.1
		c-0.7,0.7-1.1,1.7-1.3,3h7.5C633.4,292.6,633.1,291.6,632.4,290.9"/>
	<path class="st0" d="M678.3,306.5l-2-13c-0.2-1.2-0.4-2.4-0.5-3.5c-0.1-1.1-0.2-2.1-0.4-3h-0.1c-0.2,0.9-0.4,1.8-0.6,2.7
		c-0.2,1-0.5,2-0.9,3.1l-4.4,13.6h-5.3l-4.2-12.7c-0.4-1.2-0.7-2.3-1-3.4c-0.3-1.1-0.5-2.2-0.8-3.4h-0.1c-0.1,1.2-0.2,2.4-0.3,3.5
		c-0.1,1.1-0.3,2.3-0.5,3.5l-1.6,12.5h-5.4l4.3-27.2h6.2l4.6,14c0.3,0.8,0.5,1.7,0.8,2.7c0.3,1,0.5,2,0.8,3.1h0c0.2-1,0.4-2,0.7-2.9
		c0.2-0.9,0.5-1.8,0.9-2.8l4.7-14h6.2l4.3,27.2H678.3z"/>
	<path class="st0" d="M700.8,306.5c0-0.5,0-1,0-1.7c0-0.7,0.1-1.3,0.2-1.9h0c-0.6,1.2-1.5,2.1-2.7,2.9c-1.2,0.7-2.6,1.1-4.3,1.1
		c-1.2,0-2.1-0.2-2.9-0.5c-0.8-0.3-1.4-0.8-1.9-1.4c-0.5-0.6-0.8-1.2-1-2c-0.2-0.8-0.3-1.6-0.3-2.5v-14h5.2v12.8
		c0,1,0.2,1.8,0.5,2.4c0.4,0.6,1,0.9,2,0.9c0.7,0,1.3-0.2,1.9-0.5c0.6-0.3,1.1-0.8,1.5-1.4c0.4-0.6,0.8-1.3,1-2
		c0.2-0.8,0.4-1.6,0.4-2.5v-9.7h5.2v20H700.8z M695.6,280.4c0,0.8-0.3,1.4-0.8,2c-0.6,0.5-1.2,0.8-2,0.8c-0.8,0-1.5-0.3-2-0.8
		c-0.6-0.5-0.8-1.2-0.8-2c0-0.8,0.3-1.4,0.8-2c0.6-0.5,1.2-0.8,2-0.8c0.8,0,1.5,0.3,2,0.8C695.3,279,695.6,279.7,695.6,280.4
		 M703.9,280.4c0,0.8-0.3,1.4-0.8,2c-0.6,0.5-1.2,0.8-2,0.8c-0.8,0-1.5-0.3-2-0.8c-0.6-0.5-0.8-1.2-0.8-2c0-0.8,0.3-1.4,0.8-2
		c0.6-0.5,1.2-0.8,2-0.8c0.8,0,1.5,0.3,2,0.8C703.6,279,703.9,279.7,703.9,280.4"/>
	<path class="st0" d="M723.8,306.5v-12.8c0-1-0.2-1.8-0.5-2.4c-0.4-0.6-1-0.9-2-0.9c-0.7,0-1.3,0.2-1.9,0.5
		c-0.6,0.3-1.1,0.8-1.5,1.4c-0.4,0.6-0.8,1.3-1,2c-0.2,0.8-0.4,1.6-0.4,2.5v9.7h-5.2v-20h4.9c0,0.5,0,1-0.1,1.7
		c0,0.7-0.1,1.3-0.2,1.9h0c0.6-1.2,1.5-2.1,2.7-2.9c1.2-0.7,2.6-1.1,4.3-1.1c1.2,0,2.1,0.2,2.9,0.5c0.8,0.3,1.4,0.8,1.9,1.4
		c0.5,0.6,0.8,1.2,1,2c0.2,0.8,0.3,1.6,0.3,2.5v14H723.8z"/>
	<path class="st0" d="M745.5,306.6c-1,0.2-2,0.2-3,0.2c-1.4,0-2.7-0.2-3.8-0.6c-1.1-0.4-2.1-1-2.9-1.7c-0.8-0.8-1.4-1.8-1.8-3
		c-0.4-1.2-0.6-2.7-0.6-4.4c0-1.6,0.2-3,0.6-4.3c0.4-1.3,1.1-2.5,1.9-3.5c0.8-1,1.9-1.8,3.2-2.3c1.3-0.6,2.8-0.8,4.6-0.8
		c0.8,0,1.6,0.1,2.3,0.2c0.8,0.1,1.5,0.3,2.1,0.5l-0.8,4.4c-0.5-0.2-1.1-0.4-1.8-0.5c-0.7-0.1-1.3-0.2-2-0.2c-1.6,0-2.7,0.6-3.5,1.7
		c-0.8,1.1-1.2,2.6-1.2,4.5c0,0.9,0.1,1.6,0.2,2.4c0.2,0.7,0.4,1.3,0.8,1.8c0.4,0.5,0.9,0.9,1.5,1.2c0.6,0.3,1.3,0.4,2.2,0.4
		c1.4,0,2.7-0.3,4-0.8l0.7,4.3C747.4,306.2,746.5,306.5,745.5,306.6"/>
	<path class="st0" d="M764.7,306.5v-12.8c0-1-0.2-1.8-0.5-2.4c-0.4-0.6-1-0.9-2-0.9c-0.7,0-1.3,0.2-1.9,0.5
		c-0.6,0.3-1.1,0.8-1.5,1.4c-0.4,0.6-0.8,1.3-1,2.1c-0.2,0.8-0.4,1.6-0.4,2.5v9.6h-5.2v-29.4h5.2v8.6c0,0.6,0,1.3-0.1,2
		c-0.1,0.7-0.1,1.4-0.3,2h0.1c0.6-1.1,1.5-2,2.6-2.7c1.1-0.7,2.5-1,4.1-1c1.2,0,2.1,0.2,2.9,0.5c0.8,0.3,1.4,0.8,1.9,1.4
		c0.5,0.6,0.8,1.2,1,2c0.2,0.8,0.3,1.6,0.3,2.5v14H764.7z"/>
	<path class="st0" d="M792.3,295c0,0.3,0,0.7,0,1.1c0,0.4-0.1,0.8-0.1,1.3h-12.6c0,3.7,1.8,5.6,5.6,5.6c2,0,4-0.4,5.9-1.2l0.6,3.9
		c-1.1,0.4-2.3,0.8-3.6,1c-1.3,0.2-2.5,0.3-3.8,0.3c-3.2,0-5.7-0.8-7.4-2.5c-1.7-1.6-2.6-4.2-2.6-7.8c0-1.5,0.2-2.9,0.6-4.2
		c0.4-1.3,1-2.4,1.8-3.4c0.8-0.9,1.8-1.7,3-2.2c1.2-0.5,2.5-0.8,4.1-0.8c1.5,0,2.8,0.2,3.8,0.7c1.1,0.5,2,1.1,2.7,1.9
		c0.7,0.8,1.2,1.8,1.6,2.8C792.1,292.6,792.3,293.8,792.3,295 M786.2,290.9c-0.6-0.7-1.5-1.1-2.6-1.1c-1.1,0-2,0.4-2.7,1.1
		c-0.7,0.7-1.1,1.7-1.3,3h7.5C787.1,292.6,786.8,291.6,786.2,290.9"/>
	<path class="st0" d="M809.1,306.5v-12.8c0-1-0.2-1.8-0.5-2.4c-0.4-0.6-1-0.9-2-0.9c-0.7,0-1.3,0.2-1.9,0.5
		c-0.6,0.3-1.1,0.8-1.5,1.4c-0.4,0.6-0.8,1.3-1,2c-0.2,0.8-0.4,1.6-0.4,2.5v9.7h-5.2v-20h4.9c0,0.5,0,1-0.1,1.7
		c0,0.7-0.1,1.3-0.2,1.9h0c0.6-1.2,1.5-2.1,2.7-2.9c1.2-0.7,2.6-1.1,4.3-1.1c1.2,0,2.1,0.2,2.9,0.5c0.8,0.3,1.4,0.8,1.9,1.4
		c0.5,0.6,0.8,1.2,1,2c0.2,0.8,0.3,1.6,0.3,2.5v14H809.1z"/>
	<path class="st0" d="M453.9,187.7c-0.3-0.7-0.6-1.4-0.8-2.1c-0.2-0.7-0.4-1.4-0.5-2.1h-7.9v11h6.4c0.2-0.5,0.4-1,0.6-1.5
		c0.2-0.5,0.4-0.9,0.7-1.3h1v7.2h-1c-0.2-0.4-0.5-0.9-0.7-1.3c-0.2-0.5-0.4-1-0.5-1.5h-6.4V207c0.5,0.1,1.1,0.3,1.6,0.5
		c0.5,0.2,1.1,0.4,1.6,0.7v0.9h-9.6v-0.9c1-0.5,2-0.8,3.1-1.1v-23c-0.5-0.1-1.1-0.3-1.6-0.5c-0.5-0.2-1-0.4-1.5-0.7v-0.9H455v5.8
		H453.9z"/>
	<path class="st0" d="M470.5,209.4c-0.3-0.5-0.5-1.1-0.7-1.8c-0.2-0.7-0.3-1.4-0.3-2.1h0c-0.2,0.4-0.5,0.9-1,1.3
		c-0.4,0.4-0.9,0.9-1.5,1.2c-0.6,0.4-1.2,0.7-1.8,0.9c-0.7,0.2-1.3,0.4-1.9,0.4c-0.7,0-1.4-0.1-2-0.4c-0.6-0.3-1.2-0.6-1.7-1.1
		c-0.5-0.5-0.9-1.1-1.1-1.8c-0.3-0.7-0.4-1.4-0.4-2.1c0-0.8,0.2-1.5,0.7-2.3c0.5-0.8,1.2-1.5,2.2-2.1c1-0.6,2.1-1.1,3.5-1.5
		c1.4-0.4,2.9-0.6,4.6-0.6v-2.6c0-1.4-0.4-2.5-1.1-3.4c-0.7-0.8-1.8-1.2-3.1-1.2c-0.7,0-1.3,0.1-1.8,0.3c-0.5,0.2-0.9,0.4-1.2,0.7
		c-0.1,0.5-0.3,1.1-0.6,1.8c-0.2,0.7-0.5,1.3-0.9,2h-1.1v-5c0.9-0.4,1.9-0.7,3-1c1.1-0.2,2.3-0.4,3.6-0.4c2,0,3.6,0.4,4.8,1.3
		c1.1,0.9,1.7,2.2,1.7,4v10.1c0,0.4,0,0.8,0.1,1.1c0.1,0.4,0.1,0.8,0.3,1.1c0.8-0.1,1.6-0.2,2.4-0.5l0.4,1
		C474,208,472.4,208.8,470.5,209.4 M469.1,199.1c-1.5,0-2.7,0.1-3.8,0.3c-1.1,0.2-1.9,0.6-2.4,1c-0.6,0.4-1,0.9-1.2,1.4
		c-0.2,0.5-0.3,1-0.3,1.5c0,1,0.3,1.9,1,2.6s1.4,1.1,2.4,1.1c0.4,0,0.9-0.1,1.4-0.3c0.5-0.2,1-0.5,1.4-0.9c0.4-0.4,0.8-0.9,1.1-1.5
		c0.3-0.6,0.4-1.3,0.4-2V199.1z"/>
	<path class="st0" d="M491.5,209.1l-7.6-10.2v8.1c1,0.3,1.8,0.6,2.6,1.1v1h-8.8v-1c0.4-0.2,0.9-0.5,1.4-0.6c0.5-0.2,1-0.3,1.5-0.4
		v-25.5c-0.9-0.3-1.9-0.5-2.9-0.7v-0.9c1-0.2,2.1-0.3,3.3-0.4c1.2-0.1,2.2-0.1,2.9-0.1V198l6.5-7.1c-0.5-0.1-1.1-0.2-1.5-0.4
		c-0.5-0.2-0.9-0.3-1.3-0.5v-0.9h8.4v1c-0.4,0.2-0.9,0.4-1.4,0.5c-0.5,0.2-1,0.3-1.5,0.4l-6.5,6.2l7.8,9.9c0.8,0.2,1.6,0.6,2.4,1v1
		H491.5z"/>
	<path class="st0" d="M517.8,209c-1.1,0.1-2.2,0.2-3.4,0.1c0-0.7,0-1.5,0-2.4c0-0.8,0.1-1.5,0.2-2l-0.1,0c-0.2,0.6-0.6,1.2-1,1.8
		c-0.4,0.6-1,1.1-1.6,1.5c-0.6,0.4-1.3,0.7-2,1c-0.8,0.2-1.6,0.4-2.5,0.4c-2.1,0-3.7-0.7-4.8-2.2c-1-1.5-1.5-3.7-1.5-6.8
		c0-1.5,0-3.2,0.1-5c0-1.9,0.1-3.3,0.1-4.4c-0.5-0.1-0.9-0.3-1.5-0.4c-0.5-0.1-1-0.2-1.5-0.3v-0.9c0.8-0.1,1.8-0.2,3-0.3
		c1.2-0.1,2.3-0.1,3.3-0.1c-0.1,1-0.1,2.4-0.2,4.1c-0.1,1.7-0.1,3-0.1,3.9c0,0.9,0,1.7,0,2.5c0,1.2,0.1,2.2,0.2,3.1
		c0.1,0.9,0.4,1.8,0.7,2.5c0.3,0.7,0.8,1.3,1.4,1.6s1.3,0.6,2.1,0.6c0.9,0,1.7-0.2,2.4-0.6s1.3-1,1.8-1.7c0.5-0.7,0.8-1.4,1.1-2.2
		c0.3-0.8,0.4-1.6,0.4-2.5V191c-1-0.3-1.9-0.5-2.9-0.7v-0.9c0.8-0.1,1.8-0.2,2.9-0.3c1.1-0.1,2.2-0.1,3.3-0.1V207
		c0.4,0.1,0.9,0.3,1.4,0.4c0.5,0.1,1,0.2,1.6,0.3v0.9C519.7,208.8,518.8,208.9,517.8,209"/>
	<path class="st0" d="M530.9,207.5c0.5,0.2,1,0.4,1.4,0.6v0.9h-9.2v-0.9c0.9-0.5,1.9-0.9,3-1.1v-25.5c-0.5-0.1-0.9-0.3-1.5-0.4
		s-1-0.2-1.5-0.3v-0.9c0.8-0.1,1.8-0.2,3-0.3c1.2-0.1,2.3-0.1,3.3-0.1V207C529.8,207.1,530.4,207.3,530.9,207.5"/>
	<path class="st0" d="M543.8,208.7c-0.9,0.4-1.9,0.7-2.9,0.7c-1.4,0-2.4-0.4-3.1-1.3c-0.7-0.9-1-2.3-1-4.2v-13.2h-3v-1.6h2.9
		l1.5-5.6h1.8v5.6h5.9v1.6h-5.9v12.1c0,0.8,0,1.5,0.1,2.1c0.1,0.5,0.2,1,0.4,1.3c0.2,0.3,0.4,0.5,0.7,0.7c0.3,0.1,0.6,0.2,1,0.2
		c1.1,0,2.3-0.4,3.6-1.2l0.6,1.2C545.6,207.7,544.7,208.2,543.8,208.7"/>
	<path class="st0" d="M561.9,209.4c-0.3-0.5-0.6-1.1-0.8-1.8c-0.2-0.7-0.3-1.4-0.3-2.1h0c-0.2,0.4-0.5,0.9-1,1.3
		c-0.4,0.5-0.9,0.9-1.5,1.2c-0.6,0.4-1.2,0.7-1.8,0.9c-0.6,0.2-1.3,0.4-1.9,0.4c-0.7,0-1.4-0.1-2-0.4c-0.6-0.3-1.2-0.6-1.7-1.1
		c-0.5-0.5-0.9-1.1-1.1-1.7c-0.3-0.7-0.4-1.4-0.4-2.2c0-0.8,0.2-1.5,0.7-2.3c0.5-0.8,1.2-1.5,2.2-2.1c0.9-0.6,2.1-1.1,3.5-1.5
		c1.4-0.4,2.9-0.6,4.7-0.6v-2.6c0-1.4-0.3-2.5-1-3.3c-0.7-0.8-1.7-1.3-3.2-1.3c-0.7,0-1.3,0.1-1.8,0.3c-0.5,0.2-0.9,0.4-1.2,0.7
		c-0.1,0.5-0.3,1.1-0.6,1.8c-0.2,0.7-0.5,1.3-0.9,2h-1.1v-5c0.9-0.4,1.9-0.7,2.9-0.9c1-0.2,2.2-0.4,3.6-0.4c2,0,3.6,0.4,4.8,1.3
		s1.7,2.2,1.7,4v10.1c0,0.4,0,0.8,0.1,1.1c0.1,0.4,0.1,0.8,0.3,1.1c0.8-0.1,1.6-0.2,2.4-0.5l0.4,1
		C565.5,208,563.9,208.8,561.9,209.4 M555.3,183.4c0,0.5-0.2,0.9-0.6,1.3c-0.4,0.4-0.8,0.5-1.3,0.5c-0.5,0-0.9-0.2-1.3-0.5
		s-0.5-0.8-0.5-1.3c0-0.5,0.2-0.9,0.5-1.3s0.8-0.5,1.3-0.5c0.5,0,1,0.2,1.3,0.5C555.1,182.4,555.3,182.9,555.3,183.4 M560.5,199.1
		c-1.6,0-2.9,0.1-3.9,0.3c-1,0.2-1.8,0.5-2.4,0.9c-0.6,0.4-1,0.9-1.2,1.4c-0.2,0.5-0.3,1-0.3,1.6c0,1,0.3,1.9,1,2.6
		c0.6,0.7,1.4,1.1,2.4,1.1c0.4,0,0.9-0.1,1.4-0.3c0.5-0.2,1-0.5,1.4-0.9c0.4-0.4,0.8-0.9,1.1-1.4c0.3-0.6,0.4-1.3,0.4-2V199.1z
		 M562.7,183.4c0,0.5-0.2,0.9-0.6,1.3c-0.4,0.4-0.8,0.5-1.3,0.5c-0.5,0-0.9-0.2-1.3-0.5s-0.5-0.8-0.5-1.3c0-0.5,0.2-0.9,0.5-1.3
		s0.8-0.5,1.3-0.5c0.5,0,1,0.2,1.3,0.5C562.5,182.4,562.7,182.9,562.7,183.4"/>
	<path class="st0" d="M578.4,208.7c-0.9,0.4-1.9,0.7-2.9,0.7c-1.4,0-2.4-0.4-3.1-1.3c-0.7-0.9-1-2.3-1-4.2v-13.2h-3v-1.6h2.9
		l1.5-5.6h1.8v5.6h5.9v1.6h-5.9v12.1c0,0.8,0,1.5,0.1,2.1c0.1,0.5,0.2,1,0.4,1.3c0.2,0.3,0.4,0.5,0.7,0.7c0.3,0.1,0.6,0.2,1,0.2
		c1.1,0,2.3-0.4,3.6-1.2l0.6,1.2C580.2,207.7,579.4,208.2,578.4,208.7"/>
	<path class="st0" d="M592.7,209.1v-0.9c1-0.5,2-0.8,3.1-1.1v-23c-0.5-0.1-1-0.3-1.5-0.5c-0.5-0.2-1-0.4-1.5-0.7v-0.9h16.9v5.8h-1.2
		c-0.3-0.6-0.5-1.3-0.8-2c-0.2-0.8-0.4-1.5-0.5-2.1H599v10.7h6.5c0.1-0.5,0.3-0.9,0.5-1.4c0.2-0.5,0.4-1,0.7-1.4h1v7.2h-1
		c-0.2-0.4-0.5-0.8-0.7-1.3c-0.2-0.5-0.4-1-0.5-1.4H599v11.5h8.2c0.1-0.7,0.3-1.4,0.6-2.2c0.2-0.8,0.5-1.5,0.8-2.2h1.2v6H592.7z"/>
	<path class="st0" d="M621.8,207.5c0.5,0.2,1,0.4,1.4,0.6v0.9h-9.2v-0.9c0.9-0.5,1.9-0.9,3-1.1v-25.5c-0.5-0.1-0.9-0.3-1.5-0.4
		s-1-0.2-1.5-0.3v-0.9c0.8-0.1,1.8-0.2,3-0.3c1.2-0.1,2.3-0.1,3.3-0.1V207C620.7,207.1,621.2,207.3,621.8,207.5"/>
	<path class="st0" d="M642.3,196.9c0,0.2,0,0.7,0,1.4h-13v0.6c0,2.7,0.6,4.7,1.7,6c1.2,1.4,2.8,2,4.9,2c1,0,2.1-0.1,3.1-0.4
		c1.1-0.3,2-0.7,2.7-1.2l0.6,1.2c-1,0.9-2.2,1.6-3.5,2.1c-1.3,0.5-2.7,0.8-4.2,0.8c-2.8,0-5-0.9-6.5-2.7c-1.5-1.8-2.3-4.3-2.3-7.7
		c0-1.5,0.2-2.8,0.5-4.1c0.4-1.2,0.9-2.3,1.6-3.3c0.7-0.9,1.6-1.6,2.7-2.2c1.1-0.5,2.3-0.8,3.7-0.8c1.3,0,2.5,0.2,3.5,0.6
		c1,0.4,1.8,0.9,2.5,1.7c0.7,0.7,1.1,1.6,1.4,2.6C642.2,194.6,642.3,195.7,642.3,196.9 M638.5,194.2c-0.2-0.8-0.5-1.5-0.9-2.1
		c-0.4-0.6-0.9-1-1.4-1.3s-1.2-0.5-2-0.5c-0.7,0-1.4,0.2-2,0.5c-0.6,0.3-1.1,0.8-1.5,1.3c-0.4,0.6-0.7,1.3-1,2.1
		c-0.2,0.8-0.4,1.6-0.5,2.6h9.4C638.8,195.9,638.7,195,638.5,194.2"/>
	<path class="st0" d="M659.3,209.1l-7.6-10.2v8.1c1,0.3,1.8,0.6,2.6,1.1v1h-8.8v-1c0.4-0.2,0.9-0.5,1.4-0.6c0.5-0.2,1-0.3,1.5-0.4
		v-25.5c-0.9-0.3-1.9-0.5-2.9-0.7v-0.9c1-0.2,2.1-0.3,3.3-0.4c1.2-0.1,2.2-0.1,2.9-0.1V198l6.5-7.1c-0.5-0.1-1.1-0.2-1.5-0.4
		c-0.5-0.2-0.9-0.3-1.3-0.5v-0.9h8.4v1c-0.4,0.2-0.9,0.4-1.4,0.5c-0.5,0.2-1,0.3-1.5,0.4l-6.5,6.2l7.8,9.9c0.8,0.2,1.6,0.6,2.4,1v1
		H659.3z"/>
	<path class="st0" d="M676.2,208.7c-0.9,0.4-1.9,0.7-2.9,0.7c-1.4,0-2.4-0.4-3.1-1.3c-0.7-0.9-1-2.3-1-4.2v-13.2h-3v-1.6h2.9
		l1.5-5.6h1.8v5.6h5.9v1.6h-5.9v12.1c0,0.8,0,1.5,0.1,2.1c0.1,0.5,0.2,1,0.4,1.3c0.2,0.3,0.4,0.5,0.7,0.7c0.3,0.1,0.6,0.2,1,0.2
		c1.1,0,2.3-0.4,3.6-1.2l0.6,1.2C677.9,207.7,677.1,208.2,676.2,208.7"/>
	<path class="st0" d="M695.3,192.6c-0.5-0.2-0.9-0.4-1.5-0.6c-0.5-0.2-1.1-0.2-1.7-0.2c-0.6,0-1.2,0.2-1.7,0.6s-0.9,1-1.3,1.7
		c-0.4,0.7-0.7,1.5-0.9,2.3c-0.2,0.8-0.3,1.7-0.3,2.6v8.1c0.6,0.1,1.1,0.3,1.6,0.5c0.5,0.2,1,0.4,1.5,0.6v1h-9.4v-1
		c0.9-0.5,1.9-0.8,3-1.1v-16c-0.5-0.1-1-0.3-1.5-0.4c-0.6-0.1-1.1-0.2-1.5-0.3v-0.9c0.8-0.1,1.8-0.2,3-0.3c1.2-0.1,2.3-0.1,3.3-0.1
		c0,0.8,0,1.6-0.1,2.5c-0.1,0.9-0.1,1.8-0.3,2.6l0.1,0c0.2-0.8,0.5-1.5,0.9-2.2c0.3-0.7,0.7-1.2,1.1-1.7c0.4-0.5,0.9-0.9,1.4-1.1
		c0.5-0.3,1.1-0.4,1.7-0.4c0.5,0,1.1,0,1.6,0.1c0.5,0.1,1,0.2,1.4,0.4L695.3,192.6z"/>
	<path class="st0" d="M717,198.6c0,1.7-0.3,3.3-0.8,4.6c-0.5,1.3-1.3,2.5-2.3,3.4c-1,0.9-2,1.6-3.3,2.1c-1.2,0.5-2.5,0.7-3.9,0.7
		c-1.4,0-2.7-0.2-3.8-0.6c-1.1-0.4-2.1-1.1-2.9-1.9s-1.4-1.9-1.9-3.1c-0.4-1.2-0.6-2.7-0.6-4.3c0-1.7,0.3-3.2,0.8-4.5
		c0.6-1.4,1.3-2.5,2.3-3.4c1-0.9,2.1-1.6,3.3-2.1c1.2-0.5,2.5-0.7,3.8-0.7c2.9,0,5.2,0.9,6.8,2.6C716.2,193.1,717,195.5,717,198.6
		 M713.5,199.3c0-2.6-0.6-4.6-1.7-6.1c-1.1-1.5-2.8-2.3-4.9-2.3c-1.8,0-3.2,0.7-4.2,2c-1,1.3-1.5,3.3-1.5,5.8c0,2.6,0.6,4.6,1.7,6.2
		c1.2,1.6,2.8,2.3,4.9,2.3c1.8,0,3.2-0.7,4.2-2C713,203.9,713.5,202,713.5,199.3"/>
	<rect x="720.4" y="196.3" class="st0" width="9.2" height="2.3"/>
	<path class="st0" d="M761.1,209c-1.1,0.1-2.2,0.2-3.4,0.1c0-0.7,0-1.5,0-2.4c0-0.8,0.1-1.5,0.2-2l-0.1,0c-0.2,0.6-0.6,1.2-1,1.8
		c-0.4,0.6-1,1.1-1.6,1.5c-0.6,0.4-1.3,0.7-2,1c-0.8,0.2-1.6,0.4-2.5,0.4c-2.1,0-3.7-0.7-4.8-2.2c-1-1.5-1.5-3.7-1.5-6.8
		c0-1.5,0-3.2,0.1-5c0-1.9,0.1-3.3,0.1-4.4c-0.5-0.1-0.9-0.3-1.5-0.4c-0.5-0.1-1-0.2-1.5-0.3v-0.9c0.8-0.1,1.8-0.2,3-0.3
		c1.2-0.1,2.3-0.1,3.3-0.1c-0.1,1-0.1,2.4-0.2,4.1c-0.1,1.7-0.1,3-0.1,3.9c0,0.9,0,1.7,0,2.5c0,1.2,0.1,2.2,0.2,3.1
		c0.1,0.9,0.4,1.8,0.7,2.5c0.3,0.7,0.8,1.3,1.4,1.6s1.3,0.6,2.1,0.6c0.9,0,1.7-0.2,2.4-0.6s1.3-1,1.8-1.7c0.5-0.7,0.8-1.4,1.1-2.2
		c0.3-0.8,0.4-1.6,0.4-2.5V191c-1-0.3-1.9-0.5-2.9-0.7v-0.9c0.8-0.1,1.8-0.2,2.9-0.3c1.1-0.1,2.2-0.1,3.3-0.1V207
		c0.4,0.1,0.9,0.3,1.4,0.4c0.5,0.1,1,0.2,1.6,0.3v0.9C763,208.8,762.1,208.9,761.1,209"/>
	<path class="st0" d="M779.9,209.1v-0.9c0.4-0.2,0.9-0.4,1.4-0.6c0.5-0.2,1-0.4,1.5-0.5c0.1-1.3,0.1-2.7,0.2-4.2c0-1.5,0-2.9,0-4.2
		c0-1.2-0.1-2.2-0.2-3.2c-0.1-0.9-0.4-1.8-0.7-2.4c-0.3-0.7-0.8-1.2-1.3-1.6c-0.6-0.4-1.3-0.6-2.1-0.6c-0.9,0-1.7,0.2-2.4,0.6
		c-0.7,0.4-1.4,1-1.8,1.7c-0.5,0.7-0.8,1.4-1.1,2.3c-0.2,0.8-0.4,1.6-0.4,2.4v9.1c0.5,0.1,1,0.3,1.5,0.5c0.5,0.2,0.9,0.4,1.3,0.6
		v0.9h-9.1v-1c0.9-0.5,1.9-0.8,3-1.1v-16c-0.9-0.3-1.9-0.5-3-0.7v-0.9c0.8-0.1,1.8-0.2,3-0.3c1.2-0.1,2.3-0.1,3.3-0.1
		c0,0.6,0,1.2,0,1.9c0,0.7-0.1,1.2-0.1,1.6c0,0.3-0.1,0.6-0.1,0.8h0.1c0.2-0.6,0.6-1.2,1-1.8c0.4-0.5,1-1,1.6-1.5
		c0.6-0.4,1.3-0.8,2.1-1c0.8-0.2,1.6-0.4,2.4-0.4c4.2,0,6.3,3,6.3,9c0,1.8,0,3.5-0.1,5.2c0,1.7-0.1,3.1-0.2,4.1
		c0.6,0.1,1.1,0.3,1.6,0.5c0.5,0.2,1,0.4,1.4,0.6v1H779.9z"/>
	<path class="st0" d="M809,209.1c-1.1,0.1-2.1,0.1-3.2,0.1c0-0.7,0-1.3,0-1.9c0-0.6,0.1-1.4,0.2-2.4l0-0.1c-0.2,0.6-0.6,1.2-1,1.8
		c-0.4,0.5-0.9,1-1.5,1.5c-0.6,0.4-1.3,0.8-2,1c-0.7,0.3-1.5,0.4-2.4,0.4c-1.2,0-2.2-0.2-3.1-0.7c-0.9-0.5-1.7-1.1-2.4-1.9
		c-0.6-0.8-1.1-1.8-1.5-3c-0.3-1.2-0.5-2.4-0.5-3.9c0-1.9,0.3-3.6,0.8-5c0.5-1.4,1.3-2.6,2.3-3.5c1-0.9,2.1-1.6,3.3-2
		c1.2-0.4,2.6-0.6,4.1-0.6c1.2,0,2.4,0.1,3.7,0.2v-7.6c-0.5-0.1-0.9-0.3-1.5-0.4c-0.5-0.1-1-0.2-1.5-0.3v-0.9c0.8-0.1,1.8-0.2,3-0.3
		c1.2-0.1,2.3-0.1,3.3-0.1V207c0.4,0.1,0.8,0.2,1.4,0.4c0.5,0.1,1.1,0.2,1.6,0.3v0.9C811,208.8,810,208.9,809,209.1 M805.7,191.6
		c-1.2-0.8-2.6-1.2-4.5-1.2c-2,0-3.6,0.8-4.7,2.3c-1.1,1.5-1.7,3.6-1.7,6.4c0,1.2,0.1,2.3,0.4,3.2c0.2,1,0.6,1.8,1.1,2.5
		c0.5,0.7,1.1,1.2,1.8,1.6c0.7,0.4,1.5,0.6,2.4,0.6c0.7,0,1.4-0.2,2-0.5c0.6-0.4,1.2-0.9,1.7-1.5c0.5-0.6,0.9-1.3,1.1-2.2
		c0.3-0.8,0.4-1.7,0.4-2.7V191.6z"/>
	<path class="st0" d="M438.3,259.3v-0.9c1-0.5,2-0.8,3.1-1.1v-23c-0.5-0.1-1-0.3-1.5-0.5c-0.5-0.2-1-0.4-1.5-0.7v-0.9h9.4v0.9
		c-0.5,0.2-1,0.4-1.5,0.6c-0.5,0.2-1.1,0.4-1.6,0.5v23c1.1,0.3,2.1,0.6,3.1,1.1v0.9H438.3z"/>
	<path class="st0" d="M464.1,259.3v-0.9c0.4-0.2,0.9-0.4,1.4-0.6c0.5-0.2,1-0.4,1.5-0.5c0.1-1.3,0.1-2.7,0.2-4.2c0-1.5,0-2.9,0-4.2
		c0-1.2-0.1-2.2-0.2-3.2c-0.1-0.9-0.4-1.8-0.7-2.4c-0.3-0.7-0.8-1.2-1.3-1.6c-0.6-0.4-1.3-0.6-2.1-0.6c-0.9,0-1.7,0.2-2.4,0.6
		c-0.7,0.4-1.4,1-1.8,1.7c-0.5,0.7-0.8,1.4-1.1,2.3c-0.2,0.8-0.4,1.6-0.4,2.4v9.1c0.5,0.1,1,0.3,1.5,0.5c0.5,0.2,0.9,0.4,1.3,0.6
		v0.9h-9.1v-1c0.9-0.5,1.9-0.8,3-1.1v-16c-0.9-0.3-1.9-0.5-3-0.7v-0.9c0.8-0.1,1.8-0.2,3-0.3c1.2-0.1,2.3-0.1,3.3-0.1
		c0,0.6,0,1.2,0,1.9c0,0.7-0.1,1.2-0.1,1.6c0,0.3-0.1,0.6-0.1,0.8h0.1c0.2-0.6,0.6-1.2,1-1.8c0.4-0.5,1-1,1.6-1.5
		c0.6-0.4,1.3-0.8,2.1-1c0.8-0.2,1.6-0.4,2.4-0.4c4.2,0,6.3,3,6.3,9c0,1.8,0,3.5-0.1,5.2c0,1.7-0.1,3.1-0.2,4.1
		c0.6,0.1,1.1,0.3,1.6,0.5c0.5,0.2,1,0.4,1.4,0.6v1H464.1z"/>
	<path class="st0" d="M488.6,235.3c-0.3-0.5-0.5-1.1-0.8-1.8c-0.2-0.6-0.4-1.3-0.5-1.9c-0.3-0.2-0.6-0.3-1-0.4
		c-0.4-0.1-0.7-0.1-1.1-0.1c-1.2,0-2.1,0.4-2.6,1.2c-0.5,0.8-0.8,2.1-0.8,4v2.9h6v1.6h-6v16.3c0.5,0.1,1.1,0.3,1.7,0.5
		c0.6,0.2,1.1,0.4,1.5,0.6v1h-9.7v-1c0.5-0.2,1-0.4,1.6-0.6c0.6-0.2,1.2-0.3,1.7-0.5V241H475v-1.6h3.6v-2.5c0-2.2,0.6-4,1.9-5.2
		c1.2-1.3,3-1.9,5.4-1.9c1.6,0,2.8,0.1,3.9,0.4v5.3H488.6z"/>
	<path class="st0" d="M509.3,248.9c0,1.7-0.3,3.3-0.8,4.6c-0.5,1.3-1.3,2.5-2.3,3.4c-1,0.9-2,1.6-3.3,2.1c-1.2,0.5-2.5,0.7-3.9,0.7
		c-1.4,0-2.7-0.2-3.8-0.6c-1.1-0.4-2.1-1.1-2.9-1.9c-0.8-0.8-1.4-1.9-1.9-3.1c-0.4-1.2-0.6-2.7-0.6-4.3c0-1.7,0.3-3.2,0.8-4.5
		c0.6-1.4,1.3-2.5,2.3-3.4c1-0.9,2.1-1.6,3.3-2.1c1.2-0.5,2.5-0.7,3.8-0.7c2.9,0,5.2,0.9,6.8,2.6
		C508.5,243.4,509.3,245.8,509.3,248.9 M505.8,249.6c0-2.6-0.6-4.6-1.7-6.1c-1.1-1.5-2.8-2.3-4.9-2.3c-1.8,0-3.2,0.7-4.2,2
		c-1,1.3-1.5,3.3-1.5,5.8c0,2.6,0.6,4.6,1.7,6.2c1.2,1.6,2.8,2.3,4.9,2.3c1.8,0,3.2-0.7,4.2-2C505.3,254.2,505.8,252.2,505.8,249.6"
		/>
	<path class="st0" d="M526.2,242.9c-0.5-0.2-0.9-0.4-1.5-0.6c-0.5-0.2-1.1-0.2-1.7-0.2c-0.6,0-1.2,0.2-1.7,0.6
		c-0.5,0.4-0.9,1-1.3,1.7c-0.4,0.7-0.7,1.5-0.9,2.3c-0.2,0.8-0.3,1.7-0.3,2.6v8.1c0.6,0.1,1.1,0.3,1.6,0.5c0.5,0.2,1,0.4,1.5,0.6v1
		h-9.4v-1c0.9-0.5,1.9-0.8,3-1.1v-16c-0.5-0.1-1-0.3-1.5-0.4c-0.6-0.1-1.1-0.2-1.5-0.3v-0.9c0.8-0.1,1.8-0.2,3-0.3
		c1.2-0.1,2.3-0.1,3.3-0.1c0,0.8,0,1.6-0.1,2.5c-0.1,0.9-0.1,1.8-0.3,2.6l0.1,0c0.2-0.8,0.5-1.5,0.9-2.2c0.3-0.7,0.7-1.2,1.1-1.7
		c0.4-0.5,0.9-0.9,1.4-1.1c0.5-0.3,1.1-0.4,1.7-0.4c0.5,0,1.1,0,1.6,0.1c0.5,0.1,1,0.2,1.4,0.4L526.2,242.9z"/>
	<path class="st0" d="M554.9,259.3v-0.9c0.4-0.2,0.8-0.4,1.2-0.6c0.5-0.2,0.9-0.4,1.4-0.5c0.1-0.9,0.1-2.2,0.1-3.8
		c0-1.7,0.1-3.2,0.1-4.6c0-1.1-0.1-2.2-0.2-3.1c-0.1-0.9-0.4-1.7-0.7-2.4c-0.3-0.7-0.8-1.2-1.3-1.6c-0.6-0.4-1.2-0.6-2-0.6
		c-0.9,0-1.7,0.2-2.5,0.7c-0.7,0.4-1.3,1-1.8,1.7c-0.5,0.7-0.8,1.4-1.1,2.2c-0.2,0.8-0.4,1.6-0.4,2.4v9.1c0.5,0.1,1,0.3,1.4,0.5
		c0.5,0.2,0.9,0.4,1.3,0.6v0.9h-8.6v-0.9c0.4-0.2,0.8-0.4,1.2-0.6c0.5-0.2,0.9-0.4,1.4-0.5v-10.6c0-0.6-0.1-1.3-0.2-1.9
		s-0.3-1.2-0.6-1.8c-0.3-0.5-0.7-1-1.3-1.3c-0.5-0.3-1.2-0.5-2.1-0.5c-0.9,0-1.7,0.2-2.4,0.6c-0.7,0.4-1.3,1-1.7,1.7
		c-0.5,0.7-0.8,1.5-1.1,2.3c-0.2,0.8-0.4,1.6-0.4,2.4v9.1c0.5,0.1,1,0.3,1.4,0.5c0.4,0.2,0.8,0.4,1.3,0.6v0.9h-8.9v-1
		c0.9-0.5,1.9-0.8,3-1.1v-16c-0.5-0.1-1-0.3-1.5-0.4c-0.5-0.1-1-0.2-1.5-0.3v-0.9c0.8-0.1,1.8-0.2,3-0.3c1.2-0.1,2.3-0.1,3.3-0.1
		c0,0.4,0,0.8,0,1.2c0,0.4,0,0.8,0,1.2c0,0.4,0,0.8-0.1,1.1c0,0.3-0.1,0.6-0.1,0.8h0c0.2-0.6,0.6-1.2,1-1.8c0.4-0.5,1-1,1.6-1.5
		c0.6-0.4,1.3-0.8,2-1c0.7-0.2,1.5-0.4,2.3-0.4c1,0,1.9,0.1,2.6,0.4c0.7,0.3,1.3,0.6,1.8,1.1c0.5,0.4,0.9,0.9,1.1,1.5
		c0.3,0.5,0.4,1.1,0.5,1.8c0.6-1.4,1.5-2.5,2.7-3.4c1.3-0.9,2.7-1.3,4.3-1.3c2.1,0,3.7,0.7,4.7,2.2c1,1.5,1.6,3.7,1.6,6.8
		c0,1.2,0,2.4,0,3.8c0,1.4-0.1,2.6-0.1,3.5c0,1-0.1,1.6-0.1,2c1.1,0.3,2.1,0.7,3,1.1v1H554.9z"/>
	<path class="st0" d="M579,259.7c-0.3-0.5-0.5-1.1-0.7-1.8c-0.2-0.7-0.3-1.4-0.3-2.1h0c-0.2,0.4-0.5,0.9-1,1.3
		c-0.4,0.4-0.9,0.9-1.5,1.2c-0.6,0.4-1.2,0.7-1.8,0.9c-0.7,0.2-1.3,0.4-1.9,0.4c-0.7,0-1.4-0.1-2-0.4s-1.2-0.6-1.7-1.1
		c-0.5-0.5-0.9-1.1-1.1-1.8c-0.3-0.7-0.4-1.4-0.4-2.1c0-0.8,0.2-1.5,0.7-2.3c0.5-0.8,1.2-1.5,2.2-2.1c1-0.6,2.1-1.1,3.5-1.5
		c1.4-0.4,2.9-0.6,4.6-0.6v-2.6c0-1.4-0.4-2.5-1.1-3.4c-0.7-0.8-1.8-1.2-3.1-1.2c-0.7,0-1.3,0.1-1.8,0.3c-0.5,0.2-0.9,0.4-1.2,0.7
		c-0.1,0.5-0.3,1.1-0.6,1.8c-0.2,0.7-0.5,1.3-0.9,2h-1.1v-5c0.9-0.4,1.9-0.7,3-1c1.1-0.2,2.3-0.4,3.6-0.4c2,0,3.6,0.4,4.8,1.3
		c1.1,0.9,1.7,2.2,1.7,4v10.1c0,0.4,0,0.8,0.1,1.1c0.1,0.4,0.1,0.8,0.3,1.1c0.8-0.1,1.6-0.2,2.4-0.5l0.4,1
		C582.6,258.3,580.9,259.1,579,259.7 M577.6,249.4c-1.5,0-2.7,0.1-3.8,0.3c-1.1,0.2-1.9,0.5-2.4,1c-0.6,0.4-1,0.9-1.2,1.4
		c-0.2,0.5-0.3,1-0.3,1.5c0,1,0.3,1.9,1,2.6s1.4,1.1,2.4,1.1c0.4,0,0.9-0.1,1.4-0.3c0.5-0.2,1-0.5,1.4-0.9c0.4-0.4,0.8-0.9,1.1-1.5
		c0.3-0.6,0.4-1.3,0.4-2V249.4z"/>
	<path class="st0" d="M595.5,259c-0.9,0.4-1.9,0.7-2.9,0.7c-1.4,0-2.4-0.4-3.1-1.3c-0.7-0.9-1-2.3-1-4.2V241h-3v-1.6h2.9l1.5-5.6
		h1.8v5.6h5.9v1.6h-5.9v12.1c0,0.8,0,1.5,0.1,2.1c0.1,0.5,0.2,1,0.4,1.3c0.2,0.3,0.4,0.5,0.7,0.7c0.3,0.1,0.6,0.2,1,0.2
		c1.1,0,2.3-0.4,3.6-1.2l0.6,1.2C597.3,258,596.5,258.5,595.5,259"/>
	<path class="st0" d="M601.1,259.3v-1c0.9-0.5,1.9-0.8,3-1.1v-16c-0.5-0.1-1-0.3-1.5-0.4c-0.5-0.1-1-0.2-1.5-0.3v-0.9
		c0.8-0.1,1.8-0.2,3-0.3c1.2-0.1,2.3-0.1,3.3-0.1v18.1c0.6,0.1,1.1,0.3,1.6,0.5c0.5,0.2,0.9,0.4,1.4,0.6v1H601.1z M608,233.7
		c0,0.6-0.2,1-0.6,1.4c-0.4,0.4-0.9,0.6-1.5,0.6c-0.6,0-1.1-0.2-1.5-0.6c-0.4-0.4-0.6-0.9-0.6-1.4c0-0.6,0.2-1,0.6-1.4
		c0.4-0.4,0.9-0.6,1.5-0.6c0.6,0,1.1,0.2,1.5,0.6C607.8,232.6,608,233.1,608,233.7"/>
	<path class="st0" d="M632.5,248.9c0,1.7-0.3,3.3-0.8,4.6c-0.5,1.3-1.3,2.5-2.3,3.4c-1,0.9-2,1.6-3.3,2.1c-1.2,0.5-2.5,0.7-3.9,0.7
		c-1.4,0-2.7-0.2-3.8-0.6c-1.1-0.4-2.1-1.1-2.9-1.9c-0.8-0.8-1.4-1.9-1.9-3.1c-0.4-1.2-0.6-2.7-0.6-4.3c0-1.7,0.3-3.2,0.8-4.5
		c0.6-1.4,1.3-2.5,2.3-3.4c1-0.9,2.1-1.6,3.3-2.1c1.2-0.5,2.5-0.7,3.8-0.7c2.9,0,5.1,0.9,6.8,2.6
		C631.7,243.4,632.5,245.8,632.5,248.9 M629,249.6c0-2.6-0.6-4.6-1.7-6.1s-2.8-2.3-4.9-2.3c-1.8,0-3.2,0.7-4.2,2
		c-1,1.3-1.5,3.3-1.5,5.8c0,2.6,0.6,4.6,1.7,6.2c1.2,1.6,2.8,2.3,4.9,2.3c1.8,0,3.2-0.7,4.2-2C628.5,254.2,629,252.2,629,249.6"/>
	<path class="st0" d="M649,259.3v-0.9c0.4-0.2,0.9-0.4,1.4-0.6c0.5-0.2,1-0.4,1.5-0.5c0.1-1.3,0.1-2.7,0.2-4.2c0-1.5,0-2.9,0-4.2
		c0-1.2-0.1-2.2-0.2-3.2c-0.1-0.9-0.4-1.8-0.7-2.4c-0.3-0.7-0.8-1.2-1.3-1.6c-0.6-0.4-1.3-0.6-2.1-0.6c-0.9,0-1.7,0.2-2.4,0.6
		c-0.7,0.4-1.4,1-1.8,1.7c-0.5,0.7-0.8,1.4-1.1,2.3c-0.2,0.8-0.4,1.6-0.4,2.4v9.1c0.5,0.1,1,0.3,1.5,0.5c0.5,0.2,0.9,0.4,1.3,0.6
		v0.9h-9.1v-1c0.9-0.5,1.9-0.8,3-1.1v-16c-0.9-0.3-1.9-0.5-3-0.7v-0.9c0.8-0.1,1.8-0.2,3-0.3c1.2-0.1,2.3-0.1,3.3-0.1
		c0,0.6,0,1.2,0,1.9c0,0.7-0.1,1.2-0.1,1.6c0,0.3-0.1,0.6-0.1,0.8h0.1c0.2-0.6,0.6-1.2,1-1.8c0.4-0.5,1-1,1.6-1.5
		c0.6-0.4,1.3-0.8,2.1-1c0.8-0.2,1.6-0.4,2.4-0.4c4.2,0,6.3,3,6.3,9c0,1.8,0,3.5-0.1,5.2c0,1.7-0.1,3.1-0.2,4.1
		c0.6,0.1,1.1,0.3,1.6,0.5c0.5,0.2,1,0.4,1.4,0.6v1H649z"/>
	<path class="st0" d="M674.1,253.7c0,0.9-0.2,1.6-0.6,2.4c-0.4,0.7-1,1.3-1.7,1.8c-0.7,0.5-1.5,0.9-2.4,1.2
		c-0.9,0.3-1.8,0.4-2.8,0.4c-2,0-3.7-0.2-5.1-0.6v-5.6h1.1c0.2,0.5,0.5,1.1,0.7,1.7c0.2,0.6,0.4,1.2,0.5,1.7
		c0.5,0.2,1.1,0.4,1.8,0.6c0.7,0.2,1.4,0.3,2.1,0.3c1,0,1.8-0.2,2.4-0.7c0.5-0.5,0.8-1.2,0.8-2.2c0-0.8-0.2-1.5-0.7-2.1
		c-0.4-0.6-1-1-1.8-1.4c-0.8-0.4-1.5-0.8-2.3-1.1c-0.8-0.3-1.6-0.8-2.3-1.2c-0.8-0.5-1.3-1.1-1.8-1.9c-0.4-0.7-0.6-1.6-0.6-2.6
		c0-0.7,0.2-1.4,0.5-2.1c0.3-0.7,0.8-1.2,1.4-1.7c0.6-0.5,1.3-0.9,2.2-1.1c0.8-0.3,1.8-0.4,2.7-0.4c0.8,0,1.6,0,2.4,0.1
		c0.8,0.1,1.4,0.2,2,0.3v5.3h-1.1c-0.2-0.5-0.5-1-0.7-1.6c-0.2-0.6-0.4-1.3-0.5-1.9c-0.3-0.2-0.7-0.3-1.3-0.4
		c-0.5-0.1-1.1-0.2-1.7-0.2c-0.9,0-1.6,0.2-2.1,0.7c-0.5,0.5-0.8,1.1-0.8,2s0.2,1.5,0.7,2.1c0.4,0.6,1,1.1,1.7,1.4
		c0.7,0.4,1.5,0.8,2.4,1.1c0.9,0.4,1.7,0.8,2.4,1.3c0.8,0.5,1.3,1.1,1.8,1.8C673.8,251.9,674.1,252.8,674.1,253.7"/>
	<path class="st0" d="M687.1,259c-0.9,0.4-1.9,0.7-2.9,0.7c-1.4,0-2.4-0.4-3.1-1.3c-0.7-0.9-1-2.3-1-4.2V241h-3v-1.6h2.9l1.5-5.6
		h1.8v5.6h5.9v1.6h-5.9v12.1c0,0.8,0,1.5,0.1,2.1c0.1,0.5,0.2,1,0.4,1.3c0.2,0.3,0.4,0.5,0.7,0.7c0.3,0.1,0.6,0.2,1,0.2
		c1.1,0,2.3-0.4,3.6-1.2l0.6,1.2C688.9,258,688,258.5,687.1,259"/>
	<path class="st0" d="M709.2,247.2c0,0.2,0,0.7,0,1.4h-13v0.6c0,2.7,0.6,4.7,1.7,6c1.2,1.4,2.8,2,4.9,2c1,0,2.1-0.1,3.1-0.4
		c1.1-0.3,2-0.7,2.7-1.2l0.6,1.2c-1,0.9-2.2,1.6-3.5,2.1c-1.3,0.5-2.7,0.8-4.2,0.8c-2.8,0-5-0.9-6.5-2.7c-1.5-1.8-2.3-4.4-2.3-7.7
		c0-1.5,0.2-2.8,0.5-4.1c0.4-1.2,0.9-2.3,1.6-3.3c0.7-0.9,1.6-1.6,2.7-2.2c1.1-0.5,2.3-0.8,3.7-0.8c1.3,0,2.5,0.2,3.5,0.6
		c1,0.4,1.8,0.9,2.5,1.7c0.7,0.7,1.1,1.6,1.4,2.6C709,244.9,709.2,246,709.2,247.2 M705.4,244.5c-0.2-0.8-0.5-1.5-0.9-2.1
		c-0.4-0.6-0.9-1-1.4-1.3c-0.6-0.3-1.2-0.5-2-0.5c-0.7,0-1.4,0.2-2,0.5c-0.6,0.3-1.1,0.8-1.5,1.3c-0.4,0.6-0.7,1.3-1,2.1
		c-0.2,0.8-0.4,1.6-0.5,2.6h9.4C705.7,246.2,705.6,245.3,705.4,244.5"/>
	<path class="st0" d="M725.2,258.9c-1.2,0.4-2.5,0.7-3.7,0.7c-1.1,0-2.2-0.2-3.2-0.5c-1-0.3-2-0.9-2.8-1.6c-0.8-0.8-1.5-1.8-2-3
		c-0.5-1.2-0.7-2.7-0.7-4.5c0-3.5,0.8-6.1,2.5-8c1.6-1.9,4-2.8,7.1-2.8c0.8,0,1.7,0.1,2.7,0.2c1,0.1,1.8,0.3,2.6,0.5v5.6h-1.1
		c-0.3-0.6-0.6-1.2-0.8-1.9c-0.2-0.6-0.4-1.3-0.6-1.9c-0.5-0.3-1.1-0.5-1.7-0.7c-0.6-0.1-1.3-0.2-2-0.2c-0.8,0-1.5,0.2-2.2,0.6
		c-0.7,0.4-1.2,1-1.6,1.8c-0.4,0.8-0.8,1.7-1,2.7c-0.2,1-0.3,2.2-0.3,3.4c0,1.3,0.2,2.5,0.5,3.5c0.3,1,0.8,1.8,1.4,2.5
		c0.6,0.7,1.3,1.2,2.2,1.5c0.8,0.3,1.7,0.5,2.7,0.5c0.8,0,1.6-0.1,2.4-0.3c0.8-0.2,1.5-0.5,2.3-0.9l0.6,1.1
		C727.4,257.9,726.4,258.5,725.2,258.9"/>
	<path class="st0" d="M743.8,259.3v-0.9c0.5-0.2,0.9-0.5,1.4-0.6c0.5-0.2,1-0.3,1.5-0.5c0.1-1.2,0.1-2.4,0.1-3.8
		c0-1.4,0.1-2.9,0.1-4.5c0-1.2-0.1-2.2-0.2-3.2c-0.1-0.9-0.4-1.8-0.7-2.4c-0.3-0.7-0.8-1.2-1.3-1.6c-0.6-0.4-1.3-0.6-2.1-0.6
		c-0.9,0-1.7,0.2-2.5,0.6c-0.7,0.4-1.3,1-1.8,1.7c-0.5,0.7-0.8,1.5-1.1,2.3c-0.2,0.8-0.3,1.6-0.3,2.4v9.1c1.1,0.3,2.1,0.7,2.9,1.1
		v0.9h-9v-1c0.5-0.2,0.9-0.5,1.4-0.6c0.5-0.2,1-0.3,1.5-0.5v-25.4c-0.4-0.1-0.9-0.2-1.4-0.4c-0.6-0.1-1.1-0.2-1.5-0.3v-1
		c0.8-0.2,1.8-0.3,3.1-0.4c1.2-0.1,2.3-0.1,3.1-0.1v11c0,0.5,0,0.9-0.1,1.4c0,0.5-0.1,1-0.2,1.3l0.1,0c0.2-0.6,0.6-1.2,1-1.7
		c0.4-0.5,1-1,1.6-1.4c0.6-0.4,1.3-0.8,2.1-1c0.8-0.2,1.6-0.4,2.4-0.4c2.2,0,3.8,0.7,4.8,2.2c1,1.5,1.6,3.7,1.6,6.8
		c0,0.9,0,1.8,0,2.8c0,0.9,0,1.7,0,2.3c0,0.6,0,1.3-0.1,2.1c0,0.8-0.1,1.5-0.1,2.1c0.5,0.1,1,0.3,1.5,0.5c0.5,0.2,1,0.4,1.4,0.6v1
		H743.8z"/>
	<path class="st0" d="M768.9,259.3v-0.9c0.4-0.2,0.9-0.4,1.4-0.6c0.5-0.2,1-0.4,1.5-0.5c0.1-1.3,0.1-2.7,0.2-4.2c0-1.5,0-2.9,0-4.2
		c0-1.2-0.1-2.2-0.2-3.2c-0.1-0.9-0.4-1.8-0.7-2.4c-0.3-0.7-0.8-1.2-1.3-1.6c-0.6-0.4-1.3-0.6-2.1-0.6c-0.9,0-1.7,0.2-2.4,0.6
		c-0.7,0.4-1.4,1-1.8,1.7c-0.5,0.7-0.8,1.4-1.1,2.3c-0.2,0.8-0.4,1.6-0.4,2.4v9.1c0.5,0.1,1,0.3,1.5,0.5c0.5,0.2,0.9,0.4,1.3,0.6
		v0.9h-9.1v-1c0.9-0.5,1.9-0.8,3-1.1v-16c-0.9-0.3-1.9-0.5-3-0.7v-0.9c0.8-0.1,1.8-0.2,3-0.3c1.2-0.1,2.3-0.1,3.3-0.1
		c0,0.6,0,1.2,0,1.9c0,0.7-0.1,1.2-0.1,1.6c0,0.3-0.1,0.6-0.1,0.8h0.1c0.2-0.6,0.6-1.2,1-1.8c0.4-0.5,1-1,1.6-1.5
		c0.6-0.4,1.3-0.8,2.1-1c0.8-0.2,1.6-0.4,2.4-0.4c4.2,0,6.3,3,6.3,9c0,1.8,0,3.5-0.1,5.2c0,1.7-0.1,3.1-0.2,4.1
		c0.6,0.1,1.1,0.3,1.6,0.5c0.5,0.2,1,0.4,1.4,0.6v1H768.9z"/>
	<path class="st0" d="M780.4,259.3v-1c0.9-0.5,1.9-0.8,3-1.1v-16c-0.5-0.1-1-0.3-1.5-0.4c-0.5-0.1-1-0.2-1.5-0.3v-0.9
		c0.8-0.1,1.8-0.2,3-0.3c1.2-0.1,2.3-0.1,3.3-0.1v18.1c0.6,0.1,1.1,0.3,1.6,0.5c0.5,0.2,0.9,0.4,1.4,0.6v1H780.4z M787.3,233.7
		c0,0.6-0.2,1-0.6,1.4c-0.4,0.4-0.9,0.6-1.5,0.6c-0.6,0-1.1-0.2-1.5-0.6c-0.4-0.4-0.6-0.9-0.6-1.4c0-0.6,0.2-1,0.6-1.4
		c0.4-0.4,0.9-0.6,1.5-0.6c0.6,0,1.1,0.2,1.5,0.6C787.1,232.6,787.3,233.1,787.3,233.7"/>
	<path class="st0" d="M805.9,259.3l-7.6-10.2v8.1c1,0.3,1.8,0.6,2.6,1.1v1h-8.8v-1c0.4-0.2,0.9-0.5,1.4-0.6c0.5-0.2,1-0.3,1.5-0.4
		v-25.5c-0.9-0.3-1.9-0.5-2.9-0.7v-0.9c1-0.2,2.1-0.3,3.3-0.4c1.2-0.1,2.2-0.1,2.9-0.1v18.5l6.5-7.1c-0.5-0.1-1.1-0.2-1.5-0.4
		c-0.5-0.2-0.9-0.3-1.3-0.5v-0.9h8.4v1c-0.4,0.2-0.9,0.4-1.4,0.5c-0.5,0.2-1,0.3-1.5,0.4l-6.5,6.2l7.8,9.9c0.8,0.2,1.6,0.6,2.4,1v1
		H805.9z"/>
	<polygon class="st0" points="126,255.3 134.4,275.1 159.2,264.6 164.3,276.7 139.6,287.2 153.3,319.5 138.5,325.7 106,249.1 
		147,231.7 152.3,244.2 	"/>
	<path class="st0" d="M223.5,261.5c1.5,3.5,2.1,7,2,10.6c-0.2,3.6-1,7-2.6,10.2c-1.6,3.2-4,6.2-7,9c-3.1,2.8-6.8,5-11.1,6.9
		c-6.6,2.8-12.7,4.6-18.2,5.4l-4.3-14.6c2.9,0,5.8-0.3,8.8-0.9c3-0.6,6-1.5,9-2.8c1.7-0.7,3.3-1.6,4.6-2.6c1.4-1,2.5-2.2,3.3-3.4
		c0.8-1.3,1.3-2.7,1.5-4.2c0.1-1.5-0.2-3.2-0.9-4.9c-1-2.4-2.6-3.9-4.8-4.7c-2.2-0.7-4.6-1.1-7.4-1.2c-2.8,0-5.8,0-8.9,0.2
		c-3.2,0.2-6.3,0-9.3-0.6c-3-0.6-5.8-1.8-8.5-3.7c-2.6-1.9-4.8-4.9-6.6-9c-1.4-3.3-2.1-6.7-2-10c0.1-3.3,0.9-6.5,2.5-9.5
		c1.6-3,3.9-5.8,6.9-8.4c3-2.6,6.8-4.9,11.4-6.8c2.1-0.9,4.4-1.7,6.9-2.5c2.5-0.8,4.9-1.4,7.3-1.9l4.1,13.3c-2.4,0.2-4.7,0.6-7,1.1
		c-2.3,0.5-4.6,1.3-6.8,2.2c-4.2,1.8-7,3.9-8.2,6.5c-1.3,2.5-1.4,5.1-0.2,7.8c1,2.2,2.5,3.7,4.7,4.4c2.2,0.7,4.7,1.1,7.5,1.2
		c2.8,0.1,5.8,0,9.1-0.1c3.2-0.1,6.4,0.1,9.4,0.8c3.1,0.7,5.9,1.9,8.6,3.8C219.6,254.7,221.8,257.6,223.5,261.5"/>
	<path class="st0" d="M286.7,237.2c0.5,5.5,0,10.5-1.3,15c-1.3,4.4-3.3,8.3-6.1,11.5c-2.8,3.2-6.1,5.7-10,7.3c-4,1.7-8,2.6-11.9,2.6
		c-3.9,0.1-7.8-0.9-11.6-2.9c-3.8-2-7.4-5.1-10.9-9.4c-3.5-4.3-6.7-10-9.7-17.1c-2.6-6.1-4.1-11.9-4.5-17.3
		c-0.4-5.5,0-10.4,1.3-14.8c1.3-4.4,3.4-8.3,6.2-11.5c2.8-3.2,6.2-5.7,10.1-7.3c3.7-1.6,7.4-2.4,11.3-2.5c3.9-0.1,7.7,0.7,11.5,2.6
		c3.8,1.9,7.5,5,11.1,9.2c3.6,4.2,6.9,10,10,17.1C284.7,225.9,286.3,231.7,286.7,237.2 M261,215c-2-3.1-4.1-5.4-6.1-6.9
		c-2-1.5-4.1-2.4-6.1-2.6c-2-0.2-4.1,0.1-6.1,1c-1.7,0.7-3.2,1.9-4.4,3.5c-1.2,1.6-2,3.7-2.4,6.3c-0.4,2.5-0.3,5.6,0.4,9.1
		c0.7,3.5,1.9,7.5,3.9,12.1c2.1,4.9,4.2,8.9,6.3,12c2.1,3.1,4.1,5.3,6.1,6.8s4,2.3,6,2.5c2,0.2,4-0.2,5.9-1c1.8-0.8,3.3-1.9,4.5-3.5
		c1.2-1.6,2-3.6,2.4-6.1c0.4-2.5,0.2-5.5-0.4-9c-0.7-3.5-2-7.6-3.9-12.2C265.1,222,263.1,218.1,261,215"/>
	<path class="st0" d="M343.2,217.9l7.8,18.4l-13.6,5.8l-7.8-18.4l-30,12.7l-6-10.8l6-57.9l18.8-8l19.5,46l10.2-4.3l5.2,12.2
		L343.2,217.9z M311,179.1l-0.1,0l-4,39.8c1.1-0.5,2.5-1.1,4.1-1.8c1.6-0.7,3.3-1.5,5-2.2c1.7-0.7,3.3-1.4,4.9-2.1
		c1.6-0.7,2.8-1.2,3.8-1.6L311,179.1z"/>
</g>
</svg>
